<mxfile host="app.diagrams.net" modified="2024-04-01T18:14:49.363Z" agent="Mozilla/5.0 (Macintosh; Intel Mac OS X 10.15; rv:124.0) Gecko/20100101 Firefox/124.0" etag="gmRLOIAIJ0yS-FSUmAJi" version="24.1.0" type="device">
  <diagram id="C5RBs43oDa-KdzZeNtuy" name="Page-1">
    <mxGraphModel dx="1249" dy="694" grid="1" gridSize="10" guides="1" tooltips="1" connect="1" arrows="1" fold="1" page="1" pageScale="1" pageWidth="827" pageHeight="1169" math="0" shadow="0">
      <root>
        <mxCell id="WIyWlLk6GJQsqaUBKTNV-0" />
        <mxCell id="WIyWlLk6GJQsqaUBKTNV-1" parent="WIyWlLk6GJQsqaUBKTNV-0" />
        <mxCell id="zkfFHV4jXpPFQw0GAbJ--0" value="Patient" style="swimlane;fontStyle=2;align=center;verticalAlign=top;childLayout=stackLayout;horizontal=1;startSize=26;horizontalStack=0;resizeParent=1;resizeLast=0;collapsible=1;marginBottom=0;rounded=0;shadow=0;strokeWidth=1;fontSize=15;" parent="WIyWlLk6GJQsqaUBKTNV-1" vertex="1">
          <mxGeometry x="230" y="585" width="230" height="376" as="geometry">
            <mxRectangle x="230" y="140" width="160" height="26" as="alternateBounds" />
          </mxGeometry>
        </mxCell>
        <mxCell id="Y_vCX2u4nUjXdSM3d4XA-4" value="-PatientID: Integer" style="text;align=left;verticalAlign=top;spacingLeft=4;spacingRight=4;overflow=hidden;rotatable=0;points=[[0,0.5],[1,0.5]];portConstraint=eastwest;rounded=0;shadow=0;html=0;" parent="zkfFHV4jXpPFQw0GAbJ--0" vertex="1">
          <mxGeometry y="26" width="230" height="26" as="geometry" />
        </mxCell>
        <mxCell id="Y_vCX2u4nUjXdSM3d4XA-41" value="-PatientUserName: String" style="text;align=left;verticalAlign=top;spacingLeft=4;spacingRight=4;overflow=hidden;rotatable=0;points=[[0,0.5],[1,0.5]];portConstraint=eastwest;" parent="zkfFHV4jXpPFQw0GAbJ--0" vertex="1">
          <mxGeometry y="52" width="230" height="24" as="geometry" />
        </mxCell>
        <mxCell id="Y_vCX2u4nUjXdSM3d4XA-42" value="-Password : String" style="text;align=left;verticalAlign=top;spacingLeft=4;spacingRight=4;overflow=hidden;rotatable=0;points=[[0,0.5],[1,0.5]];portConstraint=eastwest;" parent="zkfFHV4jXpPFQw0GAbJ--0" vertex="1">
          <mxGeometry y="76" width="230" height="24" as="geometry" />
        </mxCell>
        <mxCell id="Y_vCX2u4nUjXdSM3d4XA-43" value="-AMKA : String" style="text;align=left;verticalAlign=top;spacingLeft=4;spacingRight=4;overflow=hidden;rotatable=0;points=[[0,0.5],[1,0.5]];portConstraint=eastwest;" parent="zkfFHV4jXpPFQw0GAbJ--0" vertex="1">
          <mxGeometry y="100" width="230" height="24" as="geometry" />
        </mxCell>
        <mxCell id="Y_vCX2u4nUjXdSM3d4XA-44" value="-RegisterDate : String" style="text;align=left;verticalAlign=top;spacingLeft=4;spacingRight=4;overflow=hidden;rotatable=0;points=[[0,0.5],[1,0.5]];portConstraint=eastwest;" parent="zkfFHV4jXpPFQw0GAbJ--0" vertex="1">
          <mxGeometry y="124" width="230" height="24" as="geometry" />
        </mxCell>
        <mxCell id="Y_vCX2u4nUjXdSM3d4XA-45" value="-MedicalHistory: String" style="text;align=left;verticalAlign=top;spacingLeft=4;spacingRight=4;overflow=hidden;rotatable=0;points=[[0,0.5],[1,0.5]];portConstraint=eastwest;rounded=0;shadow=0;html=0;" parent="zkfFHV4jXpPFQw0GAbJ--0" vertex="1">
          <mxGeometry y="148" width="230" height="26" as="geometry" />
        </mxCell>
        <mxCell id="Y_vCX2u4nUjXdSM3d4XA-23" value="+Appointments: list &lt;Appointment&gt;" style="text;align=left;verticalAlign=top;spacingLeft=4;spacingRight=4;overflow=hidden;rotatable=0;points=[[0,0.5],[1,0.5]];portConstraint=eastwest;rounded=0;shadow=0;html=0;" parent="zkfFHV4jXpPFQw0GAbJ--0" vertex="1">
          <mxGeometry y="174" width="230" height="26" as="geometry" />
        </mxCell>
        <mxCell id="zkfFHV4jXpPFQw0GAbJ--4" value="" style="line;html=1;strokeWidth=1;align=left;verticalAlign=middle;spacingTop=-1;spacingLeft=3;spacingRight=3;rotatable=0;labelPosition=right;points=[];portConstraint=eastwest;" parent="zkfFHV4jXpPFQw0GAbJ--0" vertex="1">
          <mxGeometry y="200" width="230" height="46" as="geometry" />
        </mxCell>
        <mxCell id="Y_vCX2u4nUjXdSM3d4XA-10" value="+chooseDepartment()" style="text;align=left;verticalAlign=top;spacingLeft=4;spacingRight=4;overflow=hidden;rotatable=0;points=[[0,0.5],[1,0.5]];portConstraint=eastwest;" parent="zkfFHV4jXpPFQw0GAbJ--0" vertex="1">
          <mxGeometry y="246" width="230" height="26" as="geometry" />
        </mxCell>
        <mxCell id="Y_vCX2u4nUjXdSM3d4XA-11" value="+chooseAppointmentDate()" style="text;align=left;verticalAlign=top;spacingLeft=4;spacingRight=4;overflow=hidden;rotatable=0;points=[[0,0.5],[1,0.5]];portConstraint=eastwest;" parent="zkfFHV4jXpPFQw0GAbJ--0" vertex="1">
          <mxGeometry y="272" width="230" height="26" as="geometry" />
        </mxCell>
        <mxCell id="Y_vCX2u4nUjXdSM3d4XA-47" value="+chooseMedicalExamination()" style="text;align=left;verticalAlign=top;spacingLeft=4;spacingRight=4;overflow=hidden;rotatable=0;points=[[0,0.5],[1,0.5]];portConstraint=eastwest;" parent="zkfFHV4jXpPFQw0GAbJ--0" vertex="1">
          <mxGeometry y="298" width="230" height="26" as="geometry" />
        </mxCell>
        <mxCell id="Y_vCX2u4nUjXdSM3d4XA-26" value="+viewAppointments()" style="text;align=left;verticalAlign=top;spacingLeft=4;spacingRight=4;overflow=hidden;rotatable=0;points=[[0,0.5],[1,0.5]];portConstraint=eastwest;" parent="zkfFHV4jXpPFQw0GAbJ--0" vertex="1">
          <mxGeometry y="324" width="230" height="26" as="geometry" />
        </mxCell>
        <mxCell id="zkfFHV4jXpPFQw0GAbJ--6" value="Appointment " style="swimlane;fontStyle=2;align=center;verticalAlign=top;childLayout=stackLayout;horizontal=1;startSize=26;horizontalStack=0;resizeParent=1;resizeLast=0;collapsible=1;marginBottom=0;rounded=0;shadow=0;strokeWidth=1;fontSize=15;" parent="WIyWlLk6GJQsqaUBKTNV-1" vertex="1">
          <mxGeometry x="790" y="1490" width="220" height="328" as="geometry">
            <mxRectangle x="130" y="380" width="160" height="26" as="alternateBounds" />
          </mxGeometry>
        </mxCell>
        <mxCell id="Y_vCX2u4nUjXdSM3d4XA-69" value="-AppointmentID: Integer" style="text;align=left;verticalAlign=top;spacingLeft=4;spacingRight=4;overflow=hidden;rotatable=0;points=[[0,0.5],[1,0.5]];portConstraint=eastwest;rounded=0;shadow=0;html=0;" parent="zkfFHV4jXpPFQw0GAbJ--6" vertex="1">
          <mxGeometry y="26" width="220" height="26" as="geometry" />
        </mxCell>
        <mxCell id="zkfFHV4jXpPFQw0GAbJ--7" value="-Date: DateTime" style="text;align=left;verticalAlign=top;spacingLeft=4;spacingRight=4;overflow=hidden;rotatable=0;points=[[0,0.5],[1,0.5]];portConstraint=eastwest;" parent="zkfFHV4jXpPFQw0GAbJ--6" vertex="1">
          <mxGeometry y="52" width="220" height="26" as="geometry" />
        </mxCell>
        <mxCell id="zkfFHV4jXpPFQw0GAbJ--8" value="-Time: DateTime" style="text;align=left;verticalAlign=top;spacingLeft=4;spacingRight=4;overflow=hidden;rotatable=0;points=[[0,0.5],[1,0.5]];portConstraint=eastwest;rounded=0;shadow=0;html=0;" parent="zkfFHV4jXpPFQw0GAbJ--6" vertex="1">
          <mxGeometry y="78" width="220" height="26" as="geometry" />
        </mxCell>
        <mxCell id="Y_vCX2u4nUjXdSM3d4XA-25" value="-DoctorID: Integer" style="text;align=left;verticalAlign=top;spacingLeft=4;spacingRight=4;overflow=hidden;rotatable=0;points=[[0,0.5],[1,0.5]];portConstraint=eastwest;rounded=0;shadow=0;html=0;" parent="zkfFHV4jXpPFQw0GAbJ--6" vertex="1">
          <mxGeometry y="104" width="220" height="26" as="geometry" />
        </mxCell>
        <mxCell id="Y_vCX2u4nUjXdSM3d4XA-64" value="-PatientID: Integer" style="text;align=left;verticalAlign=top;spacingLeft=4;spacingRight=4;overflow=hidden;rotatable=0;points=[[0,0.5],[1,0.5]];portConstraint=eastwest;rounded=0;shadow=0;html=0;" parent="zkfFHV4jXpPFQw0GAbJ--6" vertex="1">
          <mxGeometry y="130" width="220" height="26" as="geometry" />
        </mxCell>
        <mxCell id="zkfFHV4jXpPFQw0GAbJ--9" value="" style="line;html=1;strokeWidth=1;align=left;verticalAlign=middle;spacingTop=-1;spacingLeft=3;spacingRight=3;rotatable=0;labelPosition=right;points=[];portConstraint=eastwest;" parent="zkfFHV4jXpPFQw0GAbJ--6" vertex="1">
          <mxGeometry y="156" width="220" height="42" as="geometry" />
        </mxCell>
        <mxCell id="Y_vCX2u4nUjXdSM3d4XA-65" value="+cancel()" style="text;align=left;verticalAlign=top;spacingLeft=4;spacingRight=4;overflow=hidden;rotatable=0;points=[[0,0.5],[1,0.5]];portConstraint=eastwest;rounded=0;shadow=0;html=0;" parent="zkfFHV4jXpPFQw0GAbJ--6" vertex="1">
          <mxGeometry y="198" width="220" height="26" as="geometry" />
        </mxCell>
        <mxCell id="Y_vCX2u4nUjXdSM3d4XA-66" value="+changeDate()" style="text;align=left;verticalAlign=top;spacingLeft=4;spacingRight=4;overflow=hidden;rotatable=0;points=[[0,0.5],[1,0.5]];portConstraint=eastwest;rounded=0;shadow=0;html=0;" parent="zkfFHV4jXpPFQw0GAbJ--6" vertex="1">
          <mxGeometry y="224" width="220" height="26" as="geometry" />
        </mxCell>
        <mxCell id="Y_vCX2u4nUjXdSM3d4XA-67" value="+changeTime()" style="text;align=left;verticalAlign=top;spacingLeft=4;spacingRight=4;overflow=hidden;rotatable=0;points=[[0,0.5],[1,0.5]];portConstraint=eastwest;rounded=0;shadow=0;html=0;" parent="zkfFHV4jXpPFQw0GAbJ--6" vertex="1">
          <mxGeometry y="250" width="220" height="26" as="geometry" />
        </mxCell>
        <mxCell id="Y_vCX2u4nUjXdSM3d4XA-68" value="+addSchedule()" style="text;align=left;verticalAlign=top;spacingLeft=4;spacingRight=4;overflow=hidden;rotatable=0;points=[[0,0.5],[1,0.5]];portConstraint=eastwest;rounded=0;shadow=0;html=0;" parent="zkfFHV4jXpPFQw0GAbJ--6" vertex="1">
          <mxGeometry y="276" width="220" height="26" as="geometry" />
        </mxCell>
        <mxCell id="zkfFHV4jXpPFQw0GAbJ--13" value="Person" style="swimlane;fontStyle=2;align=center;verticalAlign=top;childLayout=stackLayout;horizontal=1;startSize=26;horizontalStack=0;resizeParent=1;resizeLast=0;collapsible=1;marginBottom=0;rounded=0;shadow=0;strokeWidth=1;fontSize=15;" parent="WIyWlLk6GJQsqaUBKTNV-1" vertex="1">
          <mxGeometry x="690" y="120" width="260" height="340" as="geometry">
            <mxRectangle x="340" y="380" width="170" height="26" as="alternateBounds" />
          </mxGeometry>
        </mxCell>
        <mxCell id="zkfFHV4jXpPFQw0GAbJ--14" value="+PersonID: String" style="text;align=left;verticalAlign=top;spacingLeft=4;spacingRight=4;overflow=hidden;rotatable=0;points=[[0,0.5],[1,0.5]];portConstraint=eastwest;" parent="zkfFHV4jXpPFQw0GAbJ--13" vertex="1">
          <mxGeometry y="26" width="260" height="24" as="geometry" />
        </mxCell>
        <mxCell id="Y_vCX2u4nUjXdSM3d4XA-17" value="+PersonName: String" style="text;align=left;verticalAlign=top;spacingLeft=4;spacingRight=4;overflow=hidden;rotatable=0;points=[[0,0.5],[1,0.5]];portConstraint=eastwest;" parent="zkfFHV4jXpPFQw0GAbJ--13" vertex="1">
          <mxGeometry y="50" width="260" height="24" as="geometry" />
        </mxCell>
        <mxCell id="Y_vCX2u4nUjXdSM3d4XA-30" value="+PersonSurname: String" style="text;align=left;verticalAlign=top;spacingLeft=4;spacingRight=4;overflow=hidden;rotatable=0;points=[[0,0.5],[1,0.5]];portConstraint=eastwest;" parent="zkfFHV4jXpPFQw0GAbJ--13" vertex="1">
          <mxGeometry y="74" width="260" height="24" as="geometry" />
        </mxCell>
        <mxCell id="Y_vCX2u4nUjXdSM3d4XA-31" value="+Address: String" style="text;align=left;verticalAlign=top;spacingLeft=4;spacingRight=4;overflow=hidden;rotatable=0;points=[[0,0.5],[1,0.5]];portConstraint=eastwest;" parent="zkfFHV4jXpPFQw0GAbJ--13" vertex="1">
          <mxGeometry y="98" width="260" height="24" as="geometry" />
        </mxCell>
        <mxCell id="Y_vCX2u4nUjXdSM3d4XA-33" value="+Date of Birth: String" style="text;align=left;verticalAlign=top;spacingLeft=4;spacingRight=4;overflow=hidden;rotatable=0;points=[[0,0.5],[1,0.5]];portConstraint=eastwest;" parent="zkfFHV4jXpPFQw0GAbJ--13" vertex="1">
          <mxGeometry y="122" width="260" height="24" as="geometry" />
        </mxCell>
        <mxCell id="Y_vCX2u4nUjXdSM3d4XA-34" value="+Age: Integer" style="text;align=left;verticalAlign=top;spacingLeft=4;spacingRight=4;overflow=hidden;rotatable=0;points=[[0,0.5],[1,0.5]];portConstraint=eastwest;rounded=0;shadow=0;html=0;" parent="zkfFHV4jXpPFQw0GAbJ--13" vertex="1">
          <mxGeometry y="146" width="260" height="26" as="geometry" />
        </mxCell>
        <mxCell id="Y_vCX2u4nUjXdSM3d4XA-35" value="+Gender: String" style="text;align=left;verticalAlign=top;spacingLeft=4;spacingRight=4;overflow=hidden;rotatable=0;points=[[0,0.5],[1,0.5]];portConstraint=eastwest;rounded=0;shadow=0;html=0;" parent="zkfFHV4jXpPFQw0GAbJ--13" vertex="1">
          <mxGeometry y="172" width="260" height="26" as="geometry" />
        </mxCell>
        <mxCell id="Y_vCX2u4nUjXdSM3d4XA-37" value="+Email: String" style="text;align=left;verticalAlign=top;spacingLeft=4;spacingRight=4;overflow=hidden;rotatable=0;points=[[0,0.5],[1,0.5]];portConstraint=eastwest;rounded=0;shadow=0;html=0;" parent="zkfFHV4jXpPFQw0GAbJ--13" vertex="1">
          <mxGeometry y="198" width="260" height="26" as="geometry" />
        </mxCell>
        <mxCell id="Y_vCX2u4nUjXdSM3d4XA-38" value="+PhoneΝο: Integer" style="text;align=left;verticalAlign=top;spacingLeft=4;spacingRight=4;overflow=hidden;rotatable=0;points=[[0,0.5],[1,0.5]];portConstraint=eastwest;rounded=0;shadow=0;html=0;" parent="zkfFHV4jXpPFQw0GAbJ--13" vertex="1">
          <mxGeometry y="224" width="260" height="26" as="geometry" />
        </mxCell>
        <mxCell id="zkfFHV4jXpPFQw0GAbJ--15" value="" style="line;html=1;strokeWidth=1;align=left;verticalAlign=middle;spacingTop=-1;spacingLeft=3;spacingRight=3;rotatable=0;labelPosition=right;points=[];portConstraint=eastwest;" parent="zkfFHV4jXpPFQw0GAbJ--13" vertex="1">
          <mxGeometry y="250" width="260" height="58" as="geometry" />
        </mxCell>
        <mxCell id="Y_vCX2u4nUjXdSM3d4XA-39" value="+login()" style="text;align=left;verticalAlign=top;spacingLeft=4;spacingRight=4;overflow=hidden;rotatable=0;points=[[0,0.5],[1,0.5]];portConstraint=eastwest;rounded=0;shadow=0;html=0;" parent="zkfFHV4jXpPFQw0GAbJ--13" vertex="1">
          <mxGeometry y="308" width="260" height="26" as="geometry" />
        </mxCell>
        <mxCell id="zkfFHV4jXpPFQw0GAbJ--17" value="Doctor" style="swimlane;fontStyle=2;align=center;verticalAlign=top;childLayout=stackLayout;horizontal=1;startSize=26;horizontalStack=0;resizeParent=1;resizeLast=0;collapsible=1;marginBottom=0;rounded=0;shadow=0;strokeWidth=1;fontSize=15;" parent="WIyWlLk6GJQsqaUBKTNV-1" vertex="1">
          <mxGeometry x="685" y="835" width="270" height="296" as="geometry">
            <mxRectangle x="550" y="140" width="160" height="26" as="alternateBounds" />
          </mxGeometry>
        </mxCell>
        <mxCell id="zkfFHV4jXpPFQw0GAbJ--18" value="-DoctorID: Integer" style="text;align=left;verticalAlign=top;spacingLeft=4;spacingRight=4;overflow=hidden;rotatable=0;points=[[0,0.5],[1,0.5]];portConstraint=eastwest;" parent="zkfFHV4jXpPFQw0GAbJ--17" vertex="1">
          <mxGeometry y="26" width="270" height="26" as="geometry" />
        </mxCell>
        <mxCell id="zkfFHV4jXpPFQw0GAbJ--20" value="-Specialty: String" style="text;align=left;verticalAlign=top;spacingLeft=4;spacingRight=4;overflow=hidden;rotatable=0;points=[[0,0.5],[1,0.5]];portConstraint=eastwest;rounded=0;shadow=0;html=0;" parent="zkfFHV4jXpPFQw0GAbJ--17" vertex="1">
          <mxGeometry y="52" width="270" height="26" as="geometry" />
        </mxCell>
        <mxCell id="zkfFHV4jXpPFQw0GAbJ--24" value="-AvailableAppointments: list&lt;Appointment&gt;" style="text;align=left;verticalAlign=top;spacingLeft=4;spacingRight=4;overflow=hidden;rotatable=0;points=[[0,0.5],[1,0.5]];portConstraint=eastwest;" parent="zkfFHV4jXpPFQw0GAbJ--17" vertex="1">
          <mxGeometry y="78" width="270" height="28" as="geometry" />
        </mxCell>
        <mxCell id="zkfFHV4jXpPFQw0GAbJ--23" value="" style="line;html=1;strokeWidth=1;align=left;verticalAlign=middle;spacingTop=-1;spacingLeft=3;spacingRight=3;rotatable=0;labelPosition=right;points=[];portConstraint=eastwest;" parent="zkfFHV4jXpPFQw0GAbJ--17" vertex="1">
          <mxGeometry y="106" width="270" height="50" as="geometry" />
        </mxCell>
        <mxCell id="Y_vCX2u4nUjXdSM3d4XA-27" value="+viewAppointments()" style="text;align=left;verticalAlign=top;spacingLeft=4;spacingRight=4;overflow=hidden;rotatable=0;points=[[0,0.5],[1,0.5]];portConstraint=eastwest;" parent="zkfFHV4jXpPFQw0GAbJ--17" vertex="1">
          <mxGeometry y="156" width="270" height="28" as="geometry" />
        </mxCell>
        <mxCell id="Y_vCX2u4nUjXdSM3d4XA-28" value="+viewMedicalRecord()" style="text;align=left;verticalAlign=top;spacingLeft=4;spacingRight=4;overflow=hidden;rotatable=0;points=[[0,0.5],[1,0.5]];portConstraint=eastwest;" parent="zkfFHV4jXpPFQw0GAbJ--17" vertex="1">
          <mxGeometry y="184" width="270" height="28" as="geometry" />
        </mxCell>
        <mxCell id="Y_vCX2u4nUjXdSM3d4XA-48" value="+examPatient()" style="text;align=left;verticalAlign=top;spacingLeft=4;spacingRight=4;overflow=hidden;rotatable=0;points=[[0,0.5],[1,0.5]];portConstraint=eastwest;" parent="zkfFHV4jXpPFQw0GAbJ--17" vertex="1">
          <mxGeometry y="212" width="270" height="28" as="geometry" />
        </mxCell>
        <mxCell id="K8bz_YO8pyyR5f6PXF2s-82" value="+updateMedicalRecord()" style="text;align=left;verticalAlign=top;spacingLeft=4;spacingRight=4;overflow=hidden;rotatable=0;points=[[0,0.5],[1,0.5]];portConstraint=eastwest;" parent="zkfFHV4jXpPFQw0GAbJ--17" vertex="1">
          <mxGeometry y="240" width="270" height="28" as="geometry" />
        </mxCell>
        <mxCell id="oP_L8D8mXQ5gHFG0hBvn-3" value="+updateMedicalRecord()" style="text;align=left;verticalAlign=top;spacingLeft=4;spacingRight=4;overflow=hidden;rotatable=0;points=[[0,0.5],[1,0.5]];portConstraint=eastwest;" vertex="1" parent="zkfFHV4jXpPFQw0GAbJ--17">
          <mxGeometry y="268" width="270" height="28" as="geometry" />
        </mxCell>
        <mxCell id="Y_vCX2u4nUjXdSM3d4XA-2" value="&lt;font color=&quot;#941100&quot; face=&quot;Times New Roman&quot;&gt;&lt;b&gt;&lt;i&gt;&lt;u&gt;&lt;font style=&quot;font-size: 27px;&quot;&gt;Class Diagram&lt;/font&gt;&lt;/u&gt;&lt;/i&gt;&lt;/b&gt;&lt;/font&gt;" style="rounded=0;whiteSpace=wrap;html=1;fillColor=#f5f5f5;gradientColor=#b3b3b3;strokeColor=#666666;" parent="WIyWlLk6GJQsqaUBKTNV-1" vertex="1">
          <mxGeometry x="710" y="20" width="240" height="60" as="geometry" />
        </mxCell>
        <mxCell id="Y_vCX2u4nUjXdSM3d4XA-21" value="Is issued to" style="text;html=1;align=center;verticalAlign=middle;whiteSpace=wrap;rounded=0;" parent="WIyWlLk6GJQsqaUBKTNV-1" vertex="1">
          <mxGeometry x="540" y="1110" width="60" height="30" as="geometry" />
        </mxCell>
        <mxCell id="Y_vCX2u4nUjXdSM3d4XA-22" value="Receives" style="text;html=1;align=center;verticalAlign=middle;whiteSpace=wrap;rounded=0;" parent="WIyWlLk6GJQsqaUBKTNV-1" vertex="1">
          <mxGeometry x="890" y="1260" width="60" height="30" as="geometry" />
        </mxCell>
        <mxCell id="Y_vCX2u4nUjXdSM3d4XA-50" value="MedicalStaff" style="swimlane;fontStyle=2;align=center;verticalAlign=top;childLayout=stackLayout;horizontal=1;startSize=26;horizontalStack=0;resizeParent=1;resizeLast=0;collapsible=1;marginBottom=0;rounded=0;shadow=0;strokeWidth=1;fontSize=15;" parent="WIyWlLk6GJQsqaUBKTNV-1" vertex="1">
          <mxGeometry x="1125.5" y="600" width="230" height="200" as="geometry">
            <mxRectangle x="230" y="140" width="160" height="26" as="alternateBounds" />
          </mxGeometry>
        </mxCell>
        <mxCell id="Y_vCX2u4nUjXdSM3d4XA-51" value="-StaffID: Integer" style="text;align=left;verticalAlign=top;spacingLeft=4;spacingRight=4;overflow=hidden;rotatable=0;points=[[0,0.5],[1,0.5]];portConstraint=eastwest;rounded=0;shadow=0;html=0;" parent="Y_vCX2u4nUjXdSM3d4XA-50" vertex="1">
          <mxGeometry y="26" width="230" height="26" as="geometry" />
        </mxCell>
        <mxCell id="Y_vCX2u4nUjXdSM3d4XA-52" value="-Position: String" style="text;align=left;verticalAlign=top;spacingLeft=4;spacingRight=4;overflow=hidden;rotatable=0;points=[[0,0.5],[1,0.5]];portConstraint=eastwest;" parent="Y_vCX2u4nUjXdSM3d4XA-50" vertex="1">
          <mxGeometry y="52" width="230" height="24" as="geometry" />
        </mxCell>
        <mxCell id="Y_vCX2u4nUjXdSM3d4XA-58" value="" style="line;html=1;strokeWidth=1;align=left;verticalAlign=middle;spacingTop=-1;spacingLeft=3;spacingRight=3;rotatable=0;labelPosition=right;points=[];portConstraint=eastwest;" parent="Y_vCX2u4nUjXdSM3d4XA-50" vertex="1">
          <mxGeometry y="76" width="230" height="46" as="geometry" />
        </mxCell>
        <mxCell id="Y_vCX2u4nUjXdSM3d4XA-60" value="+provideServices()" style="text;align=left;verticalAlign=top;spacingLeft=4;spacingRight=4;overflow=hidden;rotatable=0;points=[[0,0.5],[1,0.5]];portConstraint=eastwest;" parent="Y_vCX2u4nUjXdSM3d4XA-50" vertex="1">
          <mxGeometry y="122" width="230" height="26" as="geometry" />
        </mxCell>
        <mxCell id="K8bz_YO8pyyR5f6PXF2s-63" value="+handleEquipment() " style="text;align=left;verticalAlign=top;spacingLeft=4;spacingRight=4;overflow=hidden;rotatable=0;points=[[0,0.5],[1,0.5]];portConstraint=eastwest;" parent="Y_vCX2u4nUjXdSM3d4XA-50" vertex="1">
          <mxGeometry y="148" width="230" height="26" as="geometry" />
        </mxCell>
        <mxCell id="Y_vCX2u4nUjXdSM3d4XA-72" value="NurcingService" style="swimlane;fontStyle=2;align=center;verticalAlign=top;childLayout=stackLayout;horizontal=1;startSize=26;horizontalStack=0;resizeParent=1;resizeLast=0;collapsible=1;marginBottom=0;rounded=0;shadow=0;strokeWidth=1;fontSize=15;" parent="WIyWlLk6GJQsqaUBKTNV-1" vertex="1">
          <mxGeometry x="1500" y="1023" width="230" height="146" as="geometry">
            <mxRectangle x="230" y="140" width="160" height="26" as="alternateBounds" />
          </mxGeometry>
        </mxCell>
        <mxCell id="Y_vCX2u4nUjXdSM3d4XA-73" value="-ServiceID: Integer" style="text;align=left;verticalAlign=top;spacingLeft=4;spacingRight=4;overflow=hidden;rotatable=0;points=[[0,0.5],[1,0.5]];portConstraint=eastwest;rounded=0;shadow=0;html=0;" parent="Y_vCX2u4nUjXdSM3d4XA-72" vertex="1">
          <mxGeometry y="26" width="230" height="26" as="geometry" />
        </mxCell>
        <mxCell id="Y_vCX2u4nUjXdSM3d4XA-74" value="-Description: String" style="text;align=left;verticalAlign=top;spacingLeft=4;spacingRight=4;overflow=hidden;rotatable=0;points=[[0,0.5],[1,0.5]];portConstraint=eastwest;" parent="Y_vCX2u4nUjXdSM3d4XA-72" vertex="1">
          <mxGeometry y="52" width="230" height="24" as="geometry" />
        </mxCell>
        <mxCell id="Y_vCX2u4nUjXdSM3d4XA-80" value="-Cost: Decimal" style="text;align=left;verticalAlign=top;spacingLeft=4;spacingRight=4;overflow=hidden;rotatable=0;points=[[0,0.5],[1,0.5]];portConstraint=eastwest;" parent="Y_vCX2u4nUjXdSM3d4XA-72" vertex="1">
          <mxGeometry y="76" width="230" height="24" as="geometry" />
        </mxCell>
        <mxCell id="Y_vCX2u4nUjXdSM3d4XA-75" value="" style="line;html=1;strokeWidth=1;align=left;verticalAlign=middle;spacingTop=-1;spacingLeft=3;spacingRight=3;rotatable=0;labelPosition=right;points=[];portConstraint=eastwest;" parent="Y_vCX2u4nUjXdSM3d4XA-72" vertex="1">
          <mxGeometry y="100" width="230" height="46" as="geometry" />
        </mxCell>
        <mxCell id="Y_vCX2u4nUjXdSM3d4XA-81" value="AdministrativeStaff" style="swimlane;fontStyle=2;align=center;verticalAlign=top;childLayout=stackLayout;horizontal=1;startSize=26;horizontalStack=0;resizeParent=1;resizeLast=0;collapsible=1;marginBottom=0;rounded=0;shadow=0;strokeWidth=1;fontSize=15;" parent="WIyWlLk6GJQsqaUBKTNV-1" vertex="1">
          <mxGeometry x="1520" y="620" width="230" height="280" as="geometry">
            <mxRectangle x="230" y="140" width="160" height="26" as="alternateBounds" />
          </mxGeometry>
        </mxCell>
        <mxCell id="Y_vCX2u4nUjXdSM3d4XA-102" value="-AdminID: Integer" style="text;align=left;verticalAlign=top;spacingLeft=4;spacingRight=4;overflow=hidden;rotatable=0;points=[[0,0.5],[1,0.5]];portConstraint=eastwest;" parent="Y_vCX2u4nUjXdSM3d4XA-81" vertex="1">
          <mxGeometry y="26" width="230" height="26" as="geometry" />
        </mxCell>
        <mxCell id="Y_vCX2u4nUjXdSM3d4XA-85" value="" style="line;html=1;strokeWidth=1;align=left;verticalAlign=middle;spacingTop=-1;spacingLeft=3;spacingRight=3;rotatable=0;labelPosition=right;points=[];portConstraint=eastwest;" parent="Y_vCX2u4nUjXdSM3d4XA-81" vertex="1">
          <mxGeometry y="52" width="230" height="46" as="geometry" />
        </mxCell>
        <mxCell id="dW9wxORbIAsmIT1nGKFZ-0" value="+viewAppointments()" style="text;align=left;verticalAlign=top;spacingLeft=4;spacingRight=4;overflow=hidden;rotatable=0;points=[[0,0.5],[1,0.5]];portConstraint=eastwest;" parent="Y_vCX2u4nUjXdSM3d4XA-81" vertex="1">
          <mxGeometry y="98" width="230" height="26" as="geometry" />
        </mxCell>
        <mxCell id="Y_vCX2u4nUjXdSM3d4XA-98" value="+deleteAnyData()" style="text;align=left;verticalAlign=top;spacingLeft=4;spacingRight=4;overflow=hidden;rotatable=0;points=[[0,0.5],[1,0.5]];portConstraint=eastwest;" parent="Y_vCX2u4nUjXdSM3d4XA-81" vertex="1">
          <mxGeometry y="124" width="230" height="26" as="geometry" />
        </mxCell>
        <mxCell id="Y_vCX2u4nUjXdSM3d4XA-99" value="+addAnyData()" style="text;align=left;verticalAlign=top;spacingLeft=4;spacingRight=4;overflow=hidden;rotatable=0;points=[[0,0.5],[1,0.5]];portConstraint=eastwest;" parent="Y_vCX2u4nUjXdSM3d4XA-81" vertex="1">
          <mxGeometry y="150" width="230" height="26" as="geometry" />
        </mxCell>
        <mxCell id="Y_vCX2u4nUjXdSM3d4XA-100" value="+retreiveAnyData()" style="text;align=left;verticalAlign=top;spacingLeft=4;spacingRight=4;overflow=hidden;rotatable=0;points=[[0,0.5],[1,0.5]];portConstraint=eastwest;" parent="Y_vCX2u4nUjXdSM3d4XA-81" vertex="1">
          <mxGeometry y="176" width="230" height="26" as="geometry" />
        </mxCell>
        <mxCell id="Y_vCX2u4nUjXdSM3d4XA-101" value="+modifyAnyData()" style="text;align=left;verticalAlign=top;spacingLeft=4;spacingRight=4;overflow=hidden;rotatable=0;points=[[0,0.5],[1,0.5]];portConstraint=eastwest;" parent="Y_vCX2u4nUjXdSM3d4XA-81" vertex="1">
          <mxGeometry y="202" width="230" height="26" as="geometry" />
        </mxCell>
        <mxCell id="Y_vCX2u4nUjXdSM3d4XA-71" value="+receivePayment()" style="text;align=left;verticalAlign=top;spacingLeft=4;spacingRight=4;overflow=hidden;rotatable=0;points=[[0,0.5],[1,0.5]];portConstraint=eastwest;" parent="Y_vCX2u4nUjXdSM3d4XA-81" vertex="1">
          <mxGeometry y="228" width="230" height="26" as="geometry" />
        </mxCell>
        <mxCell id="oP_L8D8mXQ5gHFG0hBvn-16" value="+defineSalary()" style="text;align=left;verticalAlign=top;spacingLeft=4;spacingRight=4;overflow=hidden;rotatable=0;points=[[0,0.5],[1,0.5]];portConstraint=eastwest;" vertex="1" parent="Y_vCX2u4nUjXdSM3d4XA-81">
          <mxGeometry y="254" width="230" height="26" as="geometry" />
        </mxCell>
        <mxCell id="Y_vCX2u4nUjXdSM3d4XA-86" value="Bill" style="swimlane;fontStyle=2;align=center;verticalAlign=top;childLayout=stackLayout;horizontal=1;startSize=26;horizontalStack=0;resizeParent=1;resizeLast=0;collapsible=1;marginBottom=0;rounded=0;shadow=0;strokeWidth=1;fontSize=15;" parent="WIyWlLk6GJQsqaUBKTNV-1" vertex="1">
          <mxGeometry x="1370" y="1360" width="230" height="252" as="geometry">
            <mxRectangle x="230" y="140" width="160" height="26" as="alternateBounds" />
          </mxGeometry>
        </mxCell>
        <mxCell id="Y_vCX2u4nUjXdSM3d4XA-88" value="-Date: String" style="text;align=left;verticalAlign=top;spacingLeft=4;spacingRight=4;overflow=hidden;rotatable=0;points=[[0,0.5],[1,0.5]];portConstraint=eastwest;" parent="Y_vCX2u4nUjXdSM3d4XA-86" vertex="1">
          <mxGeometry y="26" width="230" height="24" as="geometry" />
        </mxCell>
        <mxCell id="Y_vCX2u4nUjXdSM3d4XA-87" value="-Amount: Integer" style="text;align=left;verticalAlign=top;spacingLeft=4;spacingRight=4;overflow=hidden;rotatable=0;points=[[0,0.5],[1,0.5]];portConstraint=eastwest;rounded=0;shadow=0;html=0;" parent="Y_vCX2u4nUjXdSM3d4XA-86" vertex="1">
          <mxGeometry y="50" width="230" height="26" as="geometry" />
        </mxCell>
        <mxCell id="Y_vCX2u4nUjXdSM3d4XA-94" value="-Purpose: String" style="text;align=left;verticalAlign=top;spacingLeft=4;spacingRight=4;overflow=hidden;rotatable=0;points=[[0,0.5],[1,0.5]];portConstraint=eastwest;" parent="Y_vCX2u4nUjXdSM3d4XA-86" vertex="1">
          <mxGeometry y="76" width="230" height="24" as="geometry" />
        </mxCell>
        <mxCell id="Y_vCX2u4nUjXdSM3d4XA-89" value="" style="line;html=1;strokeWidth=1;align=left;verticalAlign=middle;spacingTop=-1;spacingLeft=3;spacingRight=3;rotatable=0;labelPosition=right;points=[];portConstraint=eastwest;" parent="Y_vCX2u4nUjXdSM3d4XA-86" vertex="1">
          <mxGeometry y="100" width="230" height="46" as="geometry" />
        </mxCell>
        <mxCell id="Y_vCX2u4nUjXdSM3d4XA-90" value="+paymentFee()" style="text;align=left;verticalAlign=top;spacingLeft=4;spacingRight=4;overflow=hidden;rotatable=0;points=[[0,0.5],[1,0.5]];portConstraint=eastwest;" parent="Y_vCX2u4nUjXdSM3d4XA-86" vertex="1">
          <mxGeometry y="146" width="230" height="26" as="geometry" />
        </mxCell>
        <mxCell id="Y_vCX2u4nUjXdSM3d4XA-91" value="+retrieveAmount()" style="text;align=left;verticalAlign=top;spacingLeft=4;spacingRight=4;overflow=hidden;rotatable=0;points=[[0,0.5],[1,0.5]];portConstraint=eastwest;" parent="Y_vCX2u4nUjXdSM3d4XA-86" vertex="1">
          <mxGeometry y="172" width="230" height="28" as="geometry" />
        </mxCell>
        <mxCell id="Y_vCX2u4nUjXdSM3d4XA-97" value="+getBillDetails()" style="text;align=left;verticalAlign=top;spacingLeft=4;spacingRight=4;overflow=hidden;rotatable=0;points=[[0,0.5],[1,0.5]];portConstraint=eastwest;" parent="Y_vCX2u4nUjXdSM3d4XA-86" vertex="1">
          <mxGeometry y="200" width="230" height="28" as="geometry" />
        </mxCell>
        <mxCell id="j5LGMeY0WMxRMOpd_Qca-7" value="" style="endArrow=block;endSize=16;endFill=0;html=1;rounded=0;exitX=0.5;exitY=0;exitDx=0;exitDy=0;entryX=0.5;entryY=1;entryDx=0;entryDy=0;" parent="WIyWlLk6GJQsqaUBKTNV-1" source="zkfFHV4jXpPFQw0GAbJ--17" target="zkfFHV4jXpPFQw0GAbJ--13" edge="1">
          <mxGeometry width="160" relative="1" as="geometry">
            <mxPoint x="470" y="490" as="sourcePoint" />
            <mxPoint x="830" y="480" as="targetPoint" />
          </mxGeometry>
        </mxCell>
        <mxCell id="j5LGMeY0WMxRMOpd_Qca-10" value="" style="endArrow=none;html=1;edgeStyle=orthogonalEdgeStyle;rounded=0;exitX=0.5;exitY=0;exitDx=0;exitDy=0;" parent="WIyWlLk6GJQsqaUBKTNV-1" source="zkfFHV4jXpPFQw0GAbJ--0" edge="1">
          <mxGeometry relative="1" as="geometry">
            <mxPoint x="470" y="478.75" as="sourcePoint" />
            <mxPoint x="820" y="560" as="targetPoint" />
            <Array as="points">
              <mxPoint x="475" y="560" />
              <mxPoint x="821" y="560" />
            </Array>
          </mxGeometry>
        </mxCell>
        <mxCell id="j5LGMeY0WMxRMOpd_Qca-13" value="" style="endArrow=none;html=1;edgeStyle=orthogonalEdgeStyle;rounded=0;entryX=0.525;entryY=0.001;entryDx=0;entryDy=0;entryPerimeter=0;" parent="WIyWlLk6GJQsqaUBKTNV-1" target="Y_vCX2u4nUjXdSM3d4XA-50" edge="1">
          <mxGeometry relative="1" as="geometry">
            <mxPoint x="820" y="560" as="sourcePoint" />
            <mxPoint x="1190" y="580" as="targetPoint" />
          </mxGeometry>
        </mxCell>
        <mxCell id="j5LGMeY0WMxRMOpd_Qca-16" value="" style="endArrow=none;html=1;edgeStyle=orthogonalEdgeStyle;rounded=0;entryX=0.5;entryY=0;entryDx=0;entryDy=0;" parent="WIyWlLk6GJQsqaUBKTNV-1" target="Y_vCX2u4nUjXdSM3d4XA-81" edge="1">
          <mxGeometry relative="1" as="geometry">
            <mxPoint x="1150" y="561" as="sourcePoint" />
            <mxPoint x="1460" y="560" as="targetPoint" />
            <Array as="points">
              <mxPoint x="1635" y="561" />
            </Array>
          </mxGeometry>
        </mxCell>
        <mxCell id="K8bz_YO8pyyR5f6PXF2s-0" value="MedicalTest" style="swimlane;fontStyle=2;align=center;verticalAlign=top;childLayout=stackLayout;horizontal=1;startSize=26;horizontalStack=0;resizeParent=1;resizeLast=0;collapsible=1;marginBottom=0;rounded=0;shadow=0;strokeWidth=1;fontSize=15;" parent="WIyWlLk6GJQsqaUBKTNV-1" vertex="1">
          <mxGeometry x="210" y="1600" width="230" height="146" as="geometry">
            <mxRectangle x="230" y="140" width="160" height="26" as="alternateBounds" />
          </mxGeometry>
        </mxCell>
        <mxCell id="K8bz_YO8pyyR5f6PXF2s-1" value="-TestType: String" style="text;align=left;verticalAlign=top;spacingLeft=4;spacingRight=4;overflow=hidden;rotatable=0;points=[[0,0.5],[1,0.5]];portConstraint=eastwest;rounded=0;shadow=0;html=0;" parent="K8bz_YO8pyyR5f6PXF2s-0" vertex="1">
          <mxGeometry y="26" width="230" height="26" as="geometry" />
        </mxCell>
        <mxCell id="K8bz_YO8pyyR5f6PXF2s-2" value="-Result: String" style="text;align=left;verticalAlign=top;spacingLeft=4;spacingRight=4;overflow=hidden;rotatable=0;points=[[0,0.5],[1,0.5]];portConstraint=eastwest;" parent="K8bz_YO8pyyR5f6PXF2s-0" vertex="1">
          <mxGeometry y="52" width="230" height="24" as="geometry" />
        </mxCell>
        <mxCell id="K8bz_YO8pyyR5f6PXF2s-3" value="" style="line;html=1;strokeWidth=1;align=left;verticalAlign=middle;spacingTop=-1;spacingLeft=3;spacingRight=3;rotatable=0;labelPosition=right;points=[];portConstraint=eastwest;" parent="K8bz_YO8pyyR5f6PXF2s-0" vertex="1">
          <mxGeometry y="76" width="230" height="46" as="geometry" />
        </mxCell>
        <mxCell id="K8bz_YO8pyyR5f6PXF2s-4" value="+performMoreMedicalExams(Patient)" style="text;align=left;verticalAlign=top;spacingLeft=4;spacingRight=4;overflow=hidden;rotatable=0;points=[[0,0.5],[1,0.5]];portConstraint=eastwest;" parent="K8bz_YO8pyyR5f6PXF2s-0" vertex="1">
          <mxGeometry y="122" width="230" height="24" as="geometry" />
        </mxCell>
        <mxCell id="K8bz_YO8pyyR5f6PXF2s-5" value="Prescription" style="swimlane;fontStyle=2;align=center;verticalAlign=top;childLayout=stackLayout;horizontal=1;startSize=26;horizontalStack=0;resizeParent=1;resizeLast=0;collapsible=1;marginBottom=0;rounded=0;shadow=0;strokeWidth=1;fontSize=15;" parent="WIyWlLk6GJQsqaUBKTNV-1" vertex="1">
          <mxGeometry x="510" y="1700" width="230" height="170" as="geometry">
            <mxRectangle x="230" y="140" width="160" height="26" as="alternateBounds" />
          </mxGeometry>
        </mxCell>
        <mxCell id="K8bz_YO8pyyR5f6PXF2s-6" value="-MedicationName: String" style="text;align=left;verticalAlign=top;spacingLeft=4;spacingRight=4;overflow=hidden;rotatable=0;points=[[0,0.5],[1,0.5]];portConstraint=eastwest;rounded=0;shadow=0;html=0;" parent="K8bz_YO8pyyR5f6PXF2s-5" vertex="1">
          <mxGeometry y="26" width="230" height="26" as="geometry" />
        </mxCell>
        <mxCell id="K8bz_YO8pyyR5f6PXF2s-7" value="-Dosage: String" style="text;align=left;verticalAlign=top;spacingLeft=4;spacingRight=4;overflow=hidden;rotatable=0;points=[[0,0.5],[1,0.5]];portConstraint=eastwest;" parent="K8bz_YO8pyyR5f6PXF2s-5" vertex="1">
          <mxGeometry y="52" width="230" height="24" as="geometry" />
        </mxCell>
        <mxCell id="K8bz_YO8pyyR5f6PXF2s-8" value="-Duration: String" style="text;align=left;verticalAlign=top;spacingLeft=4;spacingRight=4;overflow=hidden;rotatable=0;points=[[0,0.5],[1,0.5]];portConstraint=eastwest;" parent="K8bz_YO8pyyR5f6PXF2s-5" vertex="1">
          <mxGeometry y="76" width="230" height="24" as="geometry" />
        </mxCell>
        <mxCell id="K8bz_YO8pyyR5f6PXF2s-9" value="" style="line;html=1;strokeWidth=1;align=left;verticalAlign=middle;spacingTop=-1;spacingLeft=3;spacingRight=3;rotatable=0;labelPosition=right;points=[];portConstraint=eastwest;" parent="K8bz_YO8pyyR5f6PXF2s-5" vertex="1">
          <mxGeometry y="100" width="230" height="46" as="geometry" />
        </mxCell>
        <mxCell id="K8bz_YO8pyyR5f6PXF2s-10" value="+providePrescription(Doctor, Patient)" style="text;align=left;verticalAlign=top;spacingLeft=4;spacingRight=4;overflow=hidden;rotatable=0;points=[[0,0.5],[1,0.5]];portConstraint=eastwest;" parent="K8bz_YO8pyyR5f6PXF2s-5" vertex="1">
          <mxGeometry y="146" width="230" height="24" as="geometry" />
        </mxCell>
        <mxCell id="K8bz_YO8pyyR5f6PXF2s-12" value="MedicalRecord" style="swimlane;fontStyle=2;align=center;verticalAlign=top;childLayout=stackLayout;horizontal=1;startSize=26;horizontalStack=0;resizeParent=1;resizeLast=0;collapsible=1;marginBottom=0;rounded=0;shadow=0;strokeWidth=1;fontSize=15;" parent="WIyWlLk6GJQsqaUBKTNV-1" vertex="1">
          <mxGeometry x="190" y="1240" width="190" height="180" as="geometry">
            <mxRectangle x="230" y="140" width="160" height="26" as="alternateBounds" />
          </mxGeometry>
        </mxCell>
        <mxCell id="K8bz_YO8pyyR5f6PXF2s-13" value="-RecordNumber: String" style="text;align=left;verticalAlign=top;spacingLeft=4;spacingRight=4;overflow=hidden;rotatable=0;points=[[0,0.5],[1,0.5]];portConstraint=eastwest;rounded=0;shadow=0;html=0;" parent="K8bz_YO8pyyR5f6PXF2s-12" vertex="1">
          <mxGeometry y="26" width="190" height="26" as="geometry" />
        </mxCell>
        <mxCell id="K8bz_YO8pyyR5f6PXF2s-14" value="-Details: String" style="text;align=left;verticalAlign=top;spacingLeft=4;spacingRight=4;overflow=hidden;rotatable=0;points=[[0,0.5],[1,0.5]];portConstraint=eastwest;" parent="K8bz_YO8pyyR5f6PXF2s-12" vertex="1">
          <mxGeometry y="52" width="190" height="24" as="geometry" />
        </mxCell>
        <mxCell id="K8bz_YO8pyyR5f6PXF2s-15" value="" style="line;html=1;strokeWidth=1;align=left;verticalAlign=middle;spacingTop=-1;spacingLeft=3;spacingRight=3;rotatable=0;labelPosition=right;points=[];portConstraint=eastwest;" parent="K8bz_YO8pyyR5f6PXF2s-12" vertex="1">
          <mxGeometry y="76" width="190" height="46" as="geometry" />
        </mxCell>
        <mxCell id="K8bz_YO8pyyR5f6PXF2s-16" value="+getRecordDetails()" style="text;align=left;verticalAlign=top;spacingLeft=4;spacingRight=4;overflow=hidden;rotatable=0;points=[[0,0.5],[1,0.5]];portConstraint=eastwest;" parent="K8bz_YO8pyyR5f6PXF2s-12" vertex="1">
          <mxGeometry y="122" width="190" height="28" as="geometry" />
        </mxCell>
        <mxCell id="K8bz_YO8pyyR5f6PXF2s-18" value="+addEntry(String)" style="text;align=left;verticalAlign=top;spacingLeft=4;spacingRight=4;overflow=hidden;rotatable=0;points=[[0,0.5],[1,0.5]];portConstraint=eastwest;" parent="K8bz_YO8pyyR5f6PXF2s-12" vertex="1">
          <mxGeometry y="150" width="190" height="28" as="geometry" />
        </mxCell>
        <mxCell id="K8bz_YO8pyyR5f6PXF2s-28" value="" style="endArrow=open;endFill=0;endSize=12;html=1;rounded=0;exitX=0;exitY=0.5;exitDx=0;exitDy=0;entryX=0.75;entryY=1;entryDx=0;entryDy=0;" parent="WIyWlLk6GJQsqaUBKTNV-1" source="Y_vCX2u4nUjXdSM3d4XA-86" target="zkfFHV4jXpPFQw0GAbJ--0" edge="1">
          <mxGeometry width="160" relative="1" as="geometry">
            <mxPoint x="1120" y="1490" as="sourcePoint" />
            <mxPoint x="460" y="980" as="targetPoint" />
            <Array as="points">
              <mxPoint x="1090" y="1470" />
              <mxPoint x="730" y="1380" />
            </Array>
          </mxGeometry>
        </mxCell>
        <mxCell id="K8bz_YO8pyyR5f6PXF2s-29" value="" style="endArrow=open;endFill=1;endSize=12;html=1;rounded=0;entryX=0;entryY=0.5;entryDx=0;entryDy=0;exitX=0.5;exitY=1;exitDx=0;exitDy=0;" parent="WIyWlLk6GJQsqaUBKTNV-1" source="zkfFHV4jXpPFQw0GAbJ--0" target="zkfFHV4jXpPFQw0GAbJ--6" edge="1">
          <mxGeometry width="160" relative="1" as="geometry">
            <mxPoint x="330" y="1009" as="sourcePoint" />
            <mxPoint x="775" y="1681" as="targetPoint" />
          </mxGeometry>
        </mxCell>
        <mxCell id="K8bz_YO8pyyR5f6PXF2s-32" value="Department" style="swimlane;fontStyle=2;align=center;verticalAlign=top;childLayout=stackLayout;horizontal=1;startSize=26;horizontalStack=0;resizeParent=1;resizeLast=0;collapsible=1;marginBottom=0;rounded=0;shadow=0;strokeWidth=1;fontSize=15;" parent="WIyWlLk6GJQsqaUBKTNV-1" vertex="1">
          <mxGeometry x="1090" y="1023" width="190" height="150" as="geometry">
            <mxRectangle x="230" y="140" width="160" height="26" as="alternateBounds" />
          </mxGeometry>
        </mxCell>
        <mxCell id="K8bz_YO8pyyR5f6PXF2s-33" value="-Name: String" style="text;align=left;verticalAlign=top;spacingLeft=4;spacingRight=4;overflow=hidden;rotatable=0;points=[[0,0.5],[1,0.5]];portConstraint=eastwest;rounded=0;shadow=0;html=0;" parent="K8bz_YO8pyyR5f6PXF2s-32" vertex="1">
          <mxGeometry y="26" width="190" height="26" as="geometry" />
        </mxCell>
        <mxCell id="K8bz_YO8pyyR5f6PXF2s-34" value="-Location: String" style="text;align=left;verticalAlign=top;spacingLeft=4;spacingRight=4;overflow=hidden;rotatable=0;points=[[0,0.5],[1,0.5]];portConstraint=eastwest;" parent="K8bz_YO8pyyR5f6PXF2s-32" vertex="1">
          <mxGeometry y="52" width="190" height="24" as="geometry" />
        </mxCell>
        <mxCell id="K8bz_YO8pyyR5f6PXF2s-36" value="" style="line;html=1;strokeWidth=1;align=left;verticalAlign=middle;spacingTop=-1;spacingLeft=3;spacingRight=3;rotatable=0;labelPosition=right;points=[];portConstraint=eastwest;" parent="K8bz_YO8pyyR5f6PXF2s-32" vertex="1">
          <mxGeometry y="76" width="190" height="46" as="geometry" />
        </mxCell>
        <mxCell id="K8bz_YO8pyyR5f6PXF2s-37" value="+getDepartmentDetails()" style="text;align=left;verticalAlign=top;spacingLeft=4;spacingRight=4;overflow=hidden;rotatable=0;points=[[0,0.5],[1,0.5]];portConstraint=eastwest;" parent="K8bz_YO8pyyR5f6PXF2s-32" vertex="1">
          <mxGeometry y="122" width="190" height="24" as="geometry" />
        </mxCell>
        <mxCell id="K8bz_YO8pyyR5f6PXF2s-40" value="" style="endArrow=open;endFill=1;endSize=12;html=1;rounded=0;entryX=0.5;entryY=0;entryDx=0;entryDy=0;exitX=0.75;exitY=1;exitDx=0;exitDy=0;" parent="WIyWlLk6GJQsqaUBKTNV-1" source="Y_vCX2u4nUjXdSM3d4XA-50" target="Y_vCX2u4nUjXdSM3d4XA-72" edge="1">
          <mxGeometry width="160" relative="1" as="geometry">
            <mxPoint x="1220" y="840" as="sourcePoint" />
            <mxPoint x="1370" y="1150" as="targetPoint" />
          </mxGeometry>
        </mxCell>
        <mxCell id="K8bz_YO8pyyR5f6PXF2s-41" value="" style="endArrow=open;endFill=1;endSize=12;html=1;rounded=0;exitX=0.25;exitY=1;exitDx=0;exitDy=0;entryX=1;entryY=0.5;entryDx=0;entryDy=0;" parent="WIyWlLk6GJQsqaUBKTNV-1" source="zkfFHV4jXpPFQw0GAbJ--17" target="K8bz_YO8pyyR5f6PXF2s-12" edge="1">
          <mxGeometry width="160" relative="1" as="geometry">
            <mxPoint x="310" y="1110" as="sourcePoint" />
            <mxPoint x="360" y="1340" as="targetPoint" />
          </mxGeometry>
        </mxCell>
        <mxCell id="K8bz_YO8pyyR5f6PXF2s-42" value="" style="endArrow=open;endFill=1;endSize=12;html=1;rounded=0;entryX=0.75;entryY=0;entryDx=0;entryDy=0;exitX=0.5;exitY=1;exitDx=0;exitDy=0;" parent="WIyWlLk6GJQsqaUBKTNV-1" source="zkfFHV4jXpPFQw0GAbJ--17" target="K8bz_YO8pyyR5f6PXF2s-5" edge="1">
          <mxGeometry width="160" relative="1" as="geometry">
            <mxPoint x="770" y="1210" as="sourcePoint" />
            <mxPoint x="720" y="1540" as="targetPoint" />
          </mxGeometry>
        </mxCell>
        <mxCell id="K8bz_YO8pyyR5f6PXF2s-43" value="" style="endArrow=open;endFill=1;endSize=12;html=1;rounded=0;exitX=0.75;exitY=1;exitDx=0;exitDy=0;entryX=0.5;entryY=0;entryDx=0;entryDy=0;" parent="WIyWlLk6GJQsqaUBKTNV-1" source="K8bz_YO8pyyR5f6PXF2s-12" target="K8bz_YO8pyyR5f6PXF2s-5" edge="1">
          <mxGeometry width="160" relative="1" as="geometry">
            <mxPoint x="334" y="1470" as="sourcePoint" />
            <mxPoint x="494" y="1470" as="targetPoint" />
          </mxGeometry>
        </mxCell>
        <mxCell id="K8bz_YO8pyyR5f6PXF2s-44" value="" style="endArrow=open;endFill=1;endSize=12;html=1;rounded=0;entryX=0.474;entryY=-0.021;entryDx=0;entryDy=0;entryPerimeter=0;exitX=0.358;exitY=1.107;exitDx=0;exitDy=0;exitPerimeter=0;" parent="WIyWlLk6GJQsqaUBKTNV-1" source="K8bz_YO8pyyR5f6PXF2s-18" target="K8bz_YO8pyyR5f6PXF2s-0" edge="1">
          <mxGeometry width="160" relative="1" as="geometry">
            <mxPoint x="240" y="1430" as="sourcePoint" />
            <mxPoint x="510" y="1582" as="targetPoint" />
          </mxGeometry>
        </mxCell>
        <mxCell id="K8bz_YO8pyyR5f6PXF2s-45" value="OnlineAppointmentService" style="swimlane;fontStyle=2;align=center;verticalAlign=top;childLayout=stackLayout;horizontal=1;startSize=26;horizontalStack=0;resizeParent=1;resizeLast=0;collapsible=1;marginBottom=0;rounded=0;shadow=0;strokeWidth=1;fontSize=15;" parent="WIyWlLk6GJQsqaUBKTNV-1" vertex="1">
          <mxGeometry x="1015" y="2090" width="285" height="200" as="geometry">
            <mxRectangle x="230" y="140" width="160" height="26" as="alternateBounds" />
          </mxGeometry>
        </mxCell>
        <mxCell id="K8bz_YO8pyyR5f6PXF2s-49" value="" style="line;html=1;strokeWidth=1;align=left;verticalAlign=middle;spacingTop=-1;spacingLeft=3;spacingRight=3;rotatable=0;labelPosition=right;points=[];portConstraint=eastwest;" parent="K8bz_YO8pyyR5f6PXF2s-45" vertex="1">
          <mxGeometry y="26" width="285" height="46" as="geometry" />
        </mxCell>
        <mxCell id="K8bz_YO8pyyR5f6PXF2s-76" value="+bookAppointment(Patient, Doctor, DateTime)" style="text;align=left;verticalAlign=top;spacingLeft=4;spacingRight=4;overflow=hidden;rotatable=0;points=[[0,0.5],[1,0.5]];portConstraint=eastwest;rounded=0;shadow=0;html=0;" parent="K8bz_YO8pyyR5f6PXF2s-45" vertex="1">
          <mxGeometry y="72" width="285" height="26" as="geometry" />
        </mxCell>
        <mxCell id="K8bz_YO8pyyR5f6PXF2s-77" value="+cancelAppointment(Appointment)" style="text;align=left;verticalAlign=top;spacingLeft=4;spacingRight=4;overflow=hidden;rotatable=0;points=[[0,0.5],[1,0.5]];portConstraint=eastwest;rounded=0;shadow=0;html=0;" parent="K8bz_YO8pyyR5f6PXF2s-45" vertex="1">
          <mxGeometry y="98" width="285" height="32" as="geometry" />
        </mxCell>
        <mxCell id="K8bz_YO8pyyR5f6PXF2s-78" value="+registerPatient(Patient)" style="text;align=left;verticalAlign=top;spacingLeft=4;spacingRight=4;overflow=hidden;rotatable=0;points=[[0,0.5],[1,0.5]];portConstraint=eastwest;rounded=0;shadow=0;html=0;" parent="K8bz_YO8pyyR5f6PXF2s-45" vertex="1">
          <mxGeometry y="130" width="285" height="32" as="geometry" />
        </mxCell>
        <mxCell id="K8bz_YO8pyyR5f6PXF2s-79" value="+updateProfile(Patient)" style="text;align=left;verticalAlign=top;spacingLeft=4;spacingRight=4;overflow=hidden;rotatable=0;points=[[0,0.5],[1,0.5]];portConstraint=eastwest;rounded=0;shadow=0;html=0;" parent="K8bz_YO8pyyR5f6PXF2s-45" vertex="1">
          <mxGeometry y="162" width="285" height="26" as="geometry" />
        </mxCell>
        <mxCell id="K8bz_YO8pyyR5f6PXF2s-51" value="" style="endArrow=open;endFill=1;endSize=12;html=1;rounded=0;exitX=1;exitY=0.5;exitDx=0;exitDy=0;entryX=0.986;entryY=0.429;entryDx=0;entryDy=0;entryPerimeter=0;" parent="WIyWlLk6GJQsqaUBKTNV-1" source="Y_vCX2u4nUjXdSM3d4XA-81" target="zkfFHV4jXpPFQw0GAbJ--9" edge="1">
          <mxGeometry width="160" relative="1" as="geometry">
            <mxPoint x="1940" y="1000" as="sourcePoint" />
            <mxPoint x="1950" y="1740" as="targetPoint" />
            <Array as="points">
              <mxPoint x="2000" y="760" />
              <mxPoint x="2000" y="1670" />
            </Array>
          </mxGeometry>
        </mxCell>
        <mxCell id="K8bz_YO8pyyR5f6PXF2s-52" value="" style="endArrow=open;endFill=1;endSize=12;html=1;rounded=0;entryX=1.009;entryY=0.269;entryDx=0;entryDy=0;entryPerimeter=0;exitX=0.466;exitY=-0.004;exitDx=0;exitDy=0;exitPerimeter=0;" parent="WIyWlLk6GJQsqaUBKTNV-1" source="K8bz_YO8pyyR5f6PXF2s-45" target="Y_vCX2u4nUjXdSM3d4XA-67" edge="1">
          <mxGeometry width="160" relative="1" as="geometry">
            <mxPoint x="1400" y="1920" as="sourcePoint" />
            <mxPoint x="1291" y="1930" as="targetPoint" />
          </mxGeometry>
        </mxCell>
        <mxCell id="K8bz_YO8pyyR5f6PXF2s-54" value="" style="endArrow=open;endFill=1;endSize=12;html=1;rounded=0;entryX=0;entryY=0.5;entryDx=0;entryDy=0;exitX=0;exitY=0.5;exitDx=0;exitDy=0;" parent="WIyWlLk6GJQsqaUBKTNV-1" source="Y_vCX2u4nUjXdSM3d4XA-45" target="K8bz_YO8pyyR5f6PXF2s-76" edge="1">
          <mxGeometry width="160" relative="1" as="geometry">
            <mxPoint x="230" y="740" as="sourcePoint" />
            <mxPoint x="1016.0900000000001" y="2178.992" as="targetPoint" />
            <Array as="points">
              <mxPoint x="120" y="746" />
              <mxPoint x="120" y="2168" />
            </Array>
          </mxGeometry>
        </mxCell>
        <mxCell id="K8bz_YO8pyyR5f6PXF2s-55" value="Equipment" style="swimlane;fontStyle=2;align=center;verticalAlign=top;childLayout=stackLayout;horizontal=1;startSize=26;horizontalStack=0;resizeParent=1;resizeLast=0;collapsible=1;marginBottom=0;rounded=0;shadow=0;strokeWidth=1;fontSize=15;" parent="WIyWlLk6GJQsqaUBKTNV-1" vertex="1">
          <mxGeometry x="1090" y="1270" width="190" height="150" as="geometry">
            <mxRectangle x="230" y="140" width="160" height="26" as="alternateBounds" />
          </mxGeometry>
        </mxCell>
        <mxCell id="K8bz_YO8pyyR5f6PXF2s-56" value="-EquipmentID: String" style="text;align=left;verticalAlign=top;spacingLeft=4;spacingRight=4;overflow=hidden;rotatable=0;points=[[0,0.5],[1,0.5]];portConstraint=eastwest;rounded=0;shadow=0;html=0;" parent="K8bz_YO8pyyR5f6PXF2s-55" vertex="1">
          <mxGeometry y="26" width="190" height="26" as="geometry" />
        </mxCell>
        <mxCell id="K8bz_YO8pyyR5f6PXF2s-57" value="-Type: String" style="text;align=left;verticalAlign=top;spacingLeft=4;spacingRight=4;overflow=hidden;rotatable=0;points=[[0,0.5],[1,0.5]];portConstraint=eastwest;" parent="K8bz_YO8pyyR5f6PXF2s-55" vertex="1">
          <mxGeometry y="52" width="190" height="24" as="geometry" />
        </mxCell>
        <mxCell id="K8bz_YO8pyyR5f6PXF2s-61" value="-Location: String" style="text;align=left;verticalAlign=top;spacingLeft=4;spacingRight=4;overflow=hidden;rotatable=0;points=[[0,0.5],[1,0.5]];portConstraint=eastwest;" parent="K8bz_YO8pyyR5f6PXF2s-55" vertex="1">
          <mxGeometry y="76" width="190" height="24" as="geometry" />
        </mxCell>
        <mxCell id="K8bz_YO8pyyR5f6PXF2s-58" value="" style="line;html=1;strokeWidth=1;align=left;verticalAlign=middle;spacingTop=-1;spacingLeft=3;spacingRight=3;rotatable=0;labelPosition=right;points=[];portConstraint=eastwest;" parent="K8bz_YO8pyyR5f6PXF2s-55" vertex="1">
          <mxGeometry y="100" width="190" height="46" as="geometry" />
        </mxCell>
        <mxCell id="K8bz_YO8pyyR5f6PXF2s-60" value="" style="endArrow=open;endFill=1;endSize=12;html=1;rounded=0;entryX=0.5;entryY=1;entryDx=0;entryDy=0;exitX=0.5;exitY=0;exitDx=0;exitDy=0;" parent="WIyWlLk6GJQsqaUBKTNV-1" source="K8bz_YO8pyyR5f6PXF2s-55" target="K8bz_YO8pyyR5f6PXF2s-32" edge="1">
          <mxGeometry width="160" relative="1" as="geometry">
            <mxPoint x="1100" y="1245" as="sourcePoint" />
            <mxPoint x="965" y="1110" as="targetPoint" />
          </mxGeometry>
        </mxCell>
        <mxCell id="K8bz_YO8pyyR5f6PXF2s-62" value="Belongs to" style="text;whiteSpace=wrap;html=1;" parent="WIyWlLk6GJQsqaUBKTNV-1" vertex="1">
          <mxGeometry x="1210" y="1220" width="80" height="20" as="geometry" />
        </mxCell>
        <mxCell id="K8bz_YO8pyyR5f6PXF2s-65" value="" style="endArrow=open;endFill=1;endSize=12;html=1;rounded=0;exitX=0.5;exitY=0;exitDx=0;exitDy=0;entryX=0.5;entryY=1;entryDx=0;entryDy=0;" parent="WIyWlLk6GJQsqaUBKTNV-1" source="Y_vCX2u4nUjXdSM3d4XA-86" target="Y_vCX2u4nUjXdSM3d4XA-81" edge="1">
          <mxGeometry width="160" relative="1" as="geometry">
            <mxPoint x="1560" y="1240" as="sourcePoint" />
            <mxPoint x="1650" y="900" as="targetPoint" />
            <Array as="points">
              <mxPoint x="1485" y="1300" />
              <mxPoint x="1900" y="1300" />
              <mxPoint x="1890" y="960" />
              <mxPoint x="1635" y="960" />
            </Array>
          </mxGeometry>
        </mxCell>
        <mxCell id="K8bz_YO8pyyR5f6PXF2s-66" value="" style="endArrow=open;endFill=1;endSize=12;html=1;rounded=0;entryX=0.5;entryY=0;entryDx=0;entryDy=0;exitX=0.25;exitY=1;exitDx=0;exitDy=0;" parent="WIyWlLk6GJQsqaUBKTNV-1" source="zkfFHV4jXpPFQw0GAbJ--0" target="K8bz_YO8pyyR5f6PXF2s-12" edge="1">
          <mxGeometry width="160" relative="1" as="geometry">
            <mxPoint x="320" y="990" as="sourcePoint" />
            <mxPoint x="390" y="1340" as="targetPoint" />
          </mxGeometry>
        </mxCell>
        <mxCell id="K8bz_YO8pyyR5f6PXF2s-67" value="" style="endArrow=open;endFill=1;endSize=12;html=1;rounded=0;exitX=0.75;exitY=1;exitDx=0;exitDy=0;entryX=0.472;entryY=0.004;entryDx=0;entryDy=0;entryPerimeter=0;" parent="WIyWlLk6GJQsqaUBKTNV-1" source="zkfFHV4jXpPFQw0GAbJ--17" target="zkfFHV4jXpPFQw0GAbJ--6" edge="1">
          <mxGeometry width="160" relative="1" as="geometry">
            <mxPoint x="1100" y="1115" as="sourcePoint" />
            <mxPoint x="900" y="1480" as="targetPoint" />
          </mxGeometry>
        </mxCell>
        <mxCell id="K8bz_YO8pyyR5f6PXF2s-68" value="Selects" style="text;html=1;align=center;verticalAlign=middle;whiteSpace=wrap;rounded=0;" parent="WIyWlLk6GJQsqaUBKTNV-1" vertex="1">
          <mxGeometry x="560" y="1280" width="60" height="30" as="geometry" />
        </mxCell>
        <mxCell id="K8bz_YO8pyyR5f6PXF2s-69" value="Is managed by" style="text;html=1;align=center;verticalAlign=middle;whiteSpace=wrap;rounded=0;" parent="WIyWlLk6GJQsqaUBKTNV-1" vertex="1">
          <mxGeometry x="1710" y="1260" width="60" height="30" as="geometry" />
        </mxCell>
        <mxCell id="K8bz_YO8pyyR5f6PXF2s-72" value="Provides" style="text;whiteSpace=wrap;html=1;" parent="WIyWlLk6GJQsqaUBKTNV-1" vertex="1">
          <mxGeometry x="780" y="1300" width="80" height="20" as="geometry" />
        </mxCell>
        <mxCell id="K8bz_YO8pyyR5f6PXF2s-73" value="Updates" style="text;whiteSpace=wrap;html=1;" parent="WIyWlLk6GJQsqaUBKTNV-1" vertex="1">
          <mxGeometry x="1100" y="1930" width="80" height="20" as="geometry" />
        </mxCell>
        <mxCell id="K8bz_YO8pyyR5f6PXF2s-81" value="Provides" style="text;whiteSpace=wrap;html=1;" parent="WIyWlLk6GJQsqaUBKTNV-1" vertex="1">
          <mxGeometry x="1370" y="830" width="80" height="20" as="geometry" />
        </mxCell>
        <mxCell id="oP_L8D8mXQ5gHFG0hBvn-1" value="" style="endArrow=open;endFill=1;endSize=12;html=1;rounded=0;exitX=1;exitY=0.5;exitDx=0;exitDy=0;entryX=0;entryY=0.5;entryDx=0;entryDy=0;" edge="1" parent="WIyWlLk6GJQsqaUBKTNV-1" source="zkfFHV4jXpPFQw0GAbJ--8" target="Y_vCX2u4nUjXdSM3d4XA-90">
          <mxGeometry width="160" relative="1" as="geometry">
            <mxPoint x="1050" y="1570" as="sourcePoint" />
            <mxPoint x="1250" y="1570" as="targetPoint" />
          </mxGeometry>
        </mxCell>
        <mxCell id="oP_L8D8mXQ5gHFG0hBvn-2" value="Leads to" style="edgeLabel;html=1;align=center;verticalAlign=middle;resizable=0;points=[];" vertex="1" connectable="0" parent="oP_L8D8mXQ5gHFG0hBvn-1">
          <mxGeometry x="-0.1685" y="-3" relative="1" as="geometry">
            <mxPoint x="-1" as="offset" />
          </mxGeometry>
        </mxCell>
        <mxCell id="oP_L8D8mXQ5gHFG0hBvn-4" value="" style="endArrow=diamondThin;endFill=0;endSize=24;html=1;rounded=0;exitX=0.5;exitY=1;exitDx=0;exitDy=0;entryX=0.5;entryY=0;entryDx=0;entryDy=0;" edge="1" parent="WIyWlLk6GJQsqaUBKTNV-1" source="Y_vCX2u4nUjXdSM3d4XA-50" target="K8bz_YO8pyyR5f6PXF2s-32">
          <mxGeometry width="160" relative="1" as="geometry">
            <mxPoint x="900" y="970" as="sourcePoint" />
            <mxPoint x="1290" y="930" as="targetPoint" />
          </mxGeometry>
        </mxCell>
        <mxCell id="oP_L8D8mXQ5gHFG0hBvn-5" value="" style="endArrow=diamondThin;endFill=0;endSize=24;html=1;rounded=0;exitX=0;exitY=0.5;exitDx=0;exitDy=0;" edge="1" parent="WIyWlLk6GJQsqaUBKTNV-1" source="Y_vCX2u4nUjXdSM3d4XA-98">
          <mxGeometry width="160" relative="1" as="geometry">
            <mxPoint x="1280" y="1120" as="sourcePoint" />
            <mxPoint x="1280" y="1090" as="targetPoint" />
          </mxGeometry>
        </mxCell>
        <mxCell id="oP_L8D8mXQ5gHFG0hBvn-9" value="" style="endArrow=diamondThin;endFill=0;endSize=24;html=1;rounded=0;exitX=1;exitY=0.5;exitDx=0;exitDy=0;entryX=0;entryY=0.5;entryDx=0;entryDy=0;" edge="1" parent="WIyWlLk6GJQsqaUBKTNV-1" source="Y_vCX2u4nUjXdSM3d4XA-27" target="K8bz_YO8pyyR5f6PXF2s-32">
          <mxGeometry width="160" relative="1" as="geometry">
            <mxPoint x="1010" y="1033" as="sourcePoint" />
            <mxPoint x="1040" y="920" as="targetPoint" />
          </mxGeometry>
        </mxCell>
        <mxCell id="oP_L8D8mXQ5gHFG0hBvn-10" value="*" style="text;html=1;align=center;verticalAlign=middle;resizable=0;points=[];autosize=1;strokeColor=none;fillColor=none;" vertex="1" parent="WIyWlLk6GJQsqaUBKTNV-1">
          <mxGeometry x="965" y="988" width="30" height="30" as="geometry" />
        </mxCell>
        <mxCell id="oP_L8D8mXQ5gHFG0hBvn-12" value="*" style="text;html=1;align=center;verticalAlign=middle;resizable=0;points=[];autosize=1;strokeColor=none;fillColor=none;rotation=90;" vertex="1" parent="WIyWlLk6GJQsqaUBKTNV-1">
          <mxGeometry x="1190" y="810" width="30" height="30" as="geometry" />
        </mxCell>
        <mxCell id="oP_L8D8mXQ5gHFG0hBvn-13" value="*" style="text;html=1;align=center;verticalAlign=middle;resizable=0;points=[];autosize=1;strokeColor=none;fillColor=none;rotation=180;" vertex="1" parent="WIyWlLk6GJQsqaUBKTNV-1">
          <mxGeometry x="1480" y="758" width="30" height="30" as="geometry" />
        </mxCell>
      </root>
    </mxGraphModel>
  </diagram>
</mxfile>
